:SAMPLES-PER-SECOND 30
:FULLY-SPECIFIED
:DEGREES
591
root  -47.7238 43.335 0.881548 163.24 -79.3889 -164.781
RightUpLeg  -58.6604 -4.67342 0.311475
RightLeg  55.8872 6.48282 9.81047
RightFoot  2.00321 -2.29165 19.4628
RightToes  -3.31784e-009 0 -3.6325e-017
Spine  57.1886 1.21563 7.96356
Spine1  -14.8237 6.54008 -8.82808
HEad  -30.8775 -1.93019 -10.6283
LeftShoulder1  1.12192 -0.480891 -21.979
LeftArm  -32.9828 5.79083 -20.8365
LeftForeArm  141.002 -75.3877 -137.795
LeftHand  -0.051123 4.83034 6.46098
RightShoulder  0.164557 -2.82187 18.1644
RightArm  -27.1215 30.1379 13.695
RightForeArm  13.1461 46.4134 10.8717
RightHand  -1.56684 12.4911 -10.5387
LeftUpLeg  -57.7884 10.4651 13.462
LeftLeg  55.2722 -6.49342 -9.46314
LeftFoot  4.52187 1.51987 -11.0345
LeftToes  1.28511e-009 -3.60458e-011 6.16399e-011
592
root  -50.1919 41.4889 0.903706 166.753 -81.0381 -169.556
RightUpLeg  -52.6061 -7.39572 -1.14166
RightLeg  47.8789 9.17706 10.464
RightFoot  5.55976 -3.36049 22.613
RightToes  -3.31784e-009 0 -3.6325e-017
Spine  49.4989 1.34974 7.80829
Spine1  -8.97917 6.02727 -7.13794
HEad  -24.7141 -0.224414 -9.44326
LeftShoulder1  0.568983 1.72375 -25.454
LeftArm  -30.7829 18.3232 -16.7883
LeftForeArm  150.171 -70.7393 -149.675
LeftHand  -0.0396408 5.05572 6.4305
RightShoulder  -0.110792 -3.86042 21.0117
RightArm  -22.2236 21.4155 13.0384
RightForeArm  15.9277 51.4233 12.8648
RightHand  -1.39335 10.9304 -10.2667
LeftUpLeg  -52.1926 10.3611 11.1095
LeftLeg  46.5676 -9.02049 -9.71413
LeftFoot  11.5038 2.95288 -14.8014
LeftToes  1.28511e-009 -3.60458e-011 6.16399e-011
593
root  -52.8065 39.147 0.926842 174.355 -82.5416 -179.865
RightUpLeg  -45.6413 -11.2414 -2.99246
RightLeg  43.52 9.31984 9.06411
RightFoot  7.2066 -4.11283 25.1718
RightToes  -3.31784e-009 0 -3.6325e-017
Spine  40.8468 1.15996 7.4835
Spine1  -1.31749 5.17584 -6.64132
HEad  -16.7253 0.95898 -8.34123
LeftShoulder1  0.153035 3.04074 -26.8812
LeftArm  -27.8271 30.3207 -16.361
LeftForeArm  153.465 -69.0246 -152.648
LeftHand  -0.0524855 4.81981 6.70495
RightShoulder  -0.611883 -5.4669 24.605
RightArm  -17.5488 13.8407 14.7501
RightForeArm  16.5363 53.6628 13.9834
RightHand  -1.33331 10.4377 -10.1385
LeftUpLeg  -45.6193 12.6105 7.69501
LeftLeg  41.8252 -7.72325 -6.92913
LeftFoot  16.3302 4.82095 -19.9499
LeftToes  1.28511e-009 -3.60458e-011 6.16399e-011
594
root  -55.2722 36.4827 0.949013 -168.628 -82.8999 160.415
RightUpLeg  -40.5372 -12.6152 -6.5722
RightLeg  44.0535 9.26918 9.29515
RightFoot  7.39254 -3.48061 21.4558
RightToes  -3.31784e-009 0 -3.6325e-017
Spine  34.0959 1.65221 4.96575
Spine1  2.94115 4.22037 -5.31696
HEad  -8.03144 3.34587 -8.53636
LeftShoulder1  -0.161877 3.97138 -28.7462
LeftArm  -25.8619 39.3265 -19.1285
LeftForeArm  149.027 -71.8314 -147.565
LeftHand  -0.0289287 5.27368 6.34707
RightShoulder  -0.940276 -6.34989 26.4758
RightArm  -12.0079 8.484 18.2278
RightForeArm  13.4265 51.5653 13.1592
RightHand  -1.22879 9.69509 -9.8189
LeftUpLeg  -40.614 14.9346 4.6766
LeftLeg  42.7743 -3.29316 -2.92741
LeftFoot  15.6635 4.85376 -20.6968
LeftToes  1.28511e-009 -3.60458e-011 6.16399e-011
595
root  -57.2527 33.9713 0.903628 -158.246 -82.4133 146.753
RightUpLeg  -38.1115 -9.98013 -9.37175
RightLeg  50.889 9.80819 11.8368
RightFoot  4.06588 -0.846647 5.16961
RightToes  -3.31784e-009 0 -3.6325e-017
Spine  32.0207 1.45218 3.3372
Spine1  4.17449 3.84548 -6.42701
HEad  -4.61485 5.94317 -7.86331
LeftShoulder1  -0.367747 4.48365 -31.1626
LeftArm  -26.3832 39.0367 -23.6003
LeftForeArm  123.937 -78.2802 -120.711
LeftHand  0.0454253 6.77026 6.14815
RightShoulder  -1.16891 -6.83658 28.5819
RightArm  -8.21807 6.26077 21.7547
RightForeArm  10.6905 47.414 11.435
RightHand  -0.974079 9.68944 -7.83501
LeftUpLeg  -37.7028 14.6449 3.35576
LeftLeg  49.5065 -4.51041 -5.04232
LeftFoot  9.65401 1.53881 -6.89437
LeftToes  1.28511e-009 -3.60458e-011 6.16399e-011
596
root  -58.7829 31.2977 0.712234 -167.012 -81.3769 151.158
RightUpLeg  -41.3024 -4.45483 -9.63742
RightLeg  68.1665 3.13435 8.21873
RightFoot  -8.45032 0.147701 -3.61836
RightToes  -3.31784e-009 0 -3.6325e-017
Spine  37.6202 1.12211 3.38618
Spine1  0.944305 4.06395 -8.07513
HEad  -7.49501 7.6011 -7.02315
LeftShoulder1  -0.665011 5.1306 -34.8754
LeftArm  -25.1147 27.3231 -26.865
LeftForeArm  47.4823 -75.0928 -45.3554
LeftHand  0.0694818 7.01991 7.22573
RightShoulder  -1.15797 -6.62771 30.5347
RightArm  -6.29699 8.43089 26.1659
RightForeArm  12.1189 40.9357 8.99388
RightHand  -0.708956 8.05405 -6.49256
LeftUpLeg  -38.2841 13.5231 5.10858
LeftLeg  65.2847 -1.71223 -3.30791
LeftFoot  -8.95411 -0.197937 3.43652
LeftToes  1.28511e-009 -3.60458e-011 6.16399e-011
597
root  -59.7243 29.3132 0.831549 178.52 -83.2316 162.599
RightUpLeg  -42.5327 -2.88129 -8.97823
RightLeg  78.2685 1.31848 6.09455
RightFoot  -13.8163 -0.12675 -1.58057
RightToes  -3.31784e-009 0 -3.6325e-017
Spine  42.529 -1.53217 8.1872
Spine1  1.20364 3.4789 -9.63516
HEad  -15.5217 7.94662 -8.20766
LeftShoulder1  -0.416071 4.43025 -37.2058
LeftArm  -20.2956 6.02938 -31.3076
LeftForeArm  16.0517 -54.0216 -13.492
LeftHand  0.0167414 5.91817 8.43177
RightShoulder  -0.725798 -5.51064 29.425
RightArm  -5.97509 15.174 32.5219
RightForeArm  9.01488 30.1757 6.06986
RightHand  -0.800516 8.64261 -6.98111
LeftUpLeg  -41.3739 9.56597 8.09345
LeftLeg  77.2551 -0.564971 -1.80317
LeftFoot  -12.3146 0.0968053 2.87573
LeftToes  1.28511e-009 -3.60458e-011 6.16399e-011
598
root  -60.3473 28.1409 0.505335 -178.273 -85.3014 158.256
RightUpLeg  -43.3605 -1.92258 -9.64301
RightLeg  84.7611 0.497289 3.98481
RightFoot  -18.3039 -0.159002 -0.534556
RightToes  -3.31784e-009 0 -3.6325e-017
Spine  45.0627 -1.29432 7.23385
Spine1  2.49896 3.56704 -8.48612
HEad  -20.5235 6.97402 -8.19754
LeftShoulder1  0.783858 1.51134 -33.1814
LeftArm  -12.2292 -10.0513 -39.1769
LeftForeArm  20.4724 -36.3996 -6.73388
LeftHand  -0.00195745 5.72198 6.90856
RightShoulder  -0.289426 -4.3357 27.5908
RightArm  -3.41901 21.9145 38.6549
RightForeArm  5.42914 20.4716 4.06336
RightHand  -0.874285 9.43936 -7.21322
LeftUpLeg  -42.9207 7.7548 8.57361
LeftLeg  82.9254 -0.510815 -2.70538
LeftFoot  -15.93 0.195075 2.52576
LeftToes  1.28511e-009 -3.60458e-011 6.16399e-011
599
root  -60.7264 27.3775 0.441536 160.896 -86.6955 178
RightUpLeg  -43.0432 -1.98558 -8.5423
RightLeg  88.3189 0.275377 2.99487
RightFoot  -20.8573 -0.143904 -0.0254509
RightToes  -3.31784e-009 0 -3.6325e-017
Spine  48.8805 -2.32793 8.14523
Spine1  1.40952 3.1532 -8.38937
HEad  -24.0751 7.35988 -7.36204
LeftShoulder1  1.23161 0.0328314 -29.338
LeftArm  -6.96248 -20.8214 -46.6361
LeftForeArm  22.6394 -30.1076 -5.26241
LeftHand  -0.0399522 5.01953 5.35839
RightShoulder  -0.0277428 -3.55836 25.147
RightArm  0.688089 28.5648 44.1323
RightForeArm  6.16692 17.2034 3.49424
RightHand  -0.835802 9.48603 -6.89963
LeftUpLeg  -43.8095 6.4333 10.5314
LeftLeg  86.9266 -0.342257 -3.55672
LeftFoot  -18.4864 0.242427 2.08014
LeftToes  1.28511e-009 -3.60458e-011 6.16399e-011
600
root  -60.9434 27.2286 0.272753 144.949 -88.2065 -165.211
RightUpLeg  -43.5271 -2.74477 -8.24622
RightLeg  89.3957 0.250938 1.93093
RightFoot  -22.3335 -0.105352 0.474989
RightToes  -3.31784e-009 0 -3.6325e-017
Spine  50.5936 -2.39187 7.1395
Spine1  1.12705 2.44307 -6.86808
HEad  -25.7921 8.67161 -6.26452
LeftShoulder1  1.36593 -0.642524 -26.7564
LeftArm  -7.27682 -28.0447 -52.7643
LeftForeArm  23.4982 -33.4292 -6.07437
LeftHand  -0.0481517 4.92645 7.1776
RightShoulder  0.29156 -2.49225 23.0762
RightArm  -0.267754 32.5885 46.8039
RightForeArm  7.67624 22.9315 4.46175
RightHand  -0.908812 10.4173 -7.04382
LeftUpLeg  -45.213 5.49484 10.836
LeftLeg  87.7135 -0.295767 -4.29038
LeftFoot  -19.2182 0.270847 2.26381
LeftToes  1.28511e-009 -3.60458e-011 6.16399e-011
601
root  -61.225 27.4139 0.0940659 117.253 -88.8875 -136.527
RightUpLeg  -43.3049 -2.76683 -7.79897
RightLeg  89.2004 0.281385 0.695193
RightFoot  -23.4051 -0.0584118 0.951484
RightToes  -3.31784e-009 0 -3.6325e-017
Spine  51.4593 -1.90853 6.62426
Spine1  1.05335 2.39954 -5.22082
HEad  -29.2727 6.8218 -6.92263
LeftShoulder1  1.3583 -0.77894 -25.544
LeftArm  -5.64045 -34.9527 -56.5283
LeftForeArm  24.8222 -38.6463 -7.40248
LeftHand  -0.087568 4.26003 7.20789
RightShoulder  0.342348 -2.2968 22.6195
RightArm  -0.743725 35.2571 46.8736
RightForeArm  9.83273 31.353 6.34713
RightHand  -1.09052 10.8876 -8.16152
LeftUpLeg  -45.6061 4.7572 11.0868
LeftLeg  87.2682 -0.331314 -4.60548
LeftFoot  -19.7589 0.261216 1.93643
LeftToes  1.28511e-009 -3.60458e-011 6.16399e-011
602
root  -61.5439 28.0071 0.048451 65.4191 -88.371 -83.3749
RightUpLeg  -42.2712 -3.00197 -6.92337
RightLeg  87.1972 0.285622 -0.437265
RightFoot  -23.568 -0.0293154 1.21883
RightToes  -3.31784e-009 0 -3.6325e-017
Spine  51.1423 -2.55342 7.65411
Spine1  1.344 2.26952 -5.61227
HEad  -31.2341 6.25783 -8.0314
LeftShoulder1  1.31308 -0.99033 -22.9167
LeftArm  -4.93357 -39.6324 -59.4499
LeftForeArm  30.8835 -44.4479 -8.86533
LeftHand  -0.0700217 4.41411 6.31224
RightShoulder  0.281896 -2.49672 22.4227
RightArm  -0.81626 36.1158 47.4105
RightForeArm  14.9476 39.5929 8.32356
RightHand  -1.02742 10.3311 -7.95084
LeftUpLeg  -45.2888 3.4865 11.4782
LeftLeg  85.4302 -0.465522 -4.34518
LeftFoot  -19.8023 0.246683 1.72452
LeftToes  1.28511e-009 -3.60458e-011 6.16399e-011
603
root  -61.8871 28.9892 -0.0594832 26.3326 -88.0241 -42.4193
RightUpLeg  -40.8794 -3.44968 -7.07398
RightLeg  83.749 0.178408 -1.43738
RightFoot  -23.2706 -0.0209477 1.30132
RightToes  -3.31784e-009 0 -3.6325e-017
Spine  50.4809 -2.40699 7.06437
Spine1  0.599522 1.92095 -5.11139
HEad  -32.096 6.03635 -8.90261
LeftShoulder1  1.30355 -1.13471 -21.7338
LeftArm  -5.0425 -40.7078 -59.9882
LeftForeArm  37.2158 -50.9273 -10.9297
LeftHand  -0.106764 3.57413 5.86147
RightShoulder  0.359636 -2.18825 21.4429
RightArm  0.205612 34.5697 47.5305
RightForeArm  19.2465 46.3565 10.3841
RightHand  -1.00138 9.73326 -8.10054
LeftUpLeg  -44.2653 2.04303 10.5986
LeftLeg  81.5915 -0.693781 -3.78001
LeftFoot  -19.1785 0.186274 1.03925
LeftToes  1.28511e-009 -3.60458e-011 6.16399e-011
